<?xml version="1.0" encoding="UTF-8"?>
<svg width="100pt" height="100pt" version="1.1" viewBox="0 0 100 100" xmlns="http://www.w3.org/2000/svg">
 <g>
  <path d="m87.801 14.5h-3.8008c-0.69922-3.3008-3.6016-5.6992-7.1016-5.6992h-16.297v-2.1016c0-2.3008-1.8984-4.1992-4.1992-4.1992h-12.801c-2.3008 0-4.1992 1.8984-4.1992 4.1992v2.1016h-16.203c-3.5 0-6.3984 2.3984-7.1016 5.6992h-3.8008c-1.3008 0-2.3008 1-2.3008 2.3008v4c0 1.3008 1 2.3008 2.3008 2.3008h75.5c1.3008 0 2.3008-1 2.3008-2.3008v-4c0.003906-1.3008-1.0977-2.3008-2.2969-2.3008z"/>
  <path d="m82.699 28.801h-65.398c-0.89844 0-1.5 0.80078-1.3984 1.6016l7.6016 61c0.39844 3.3984 3.3984 6 6.8008 6h39.398c3.5 0 6.3984-2.6016 6.8008-6l7.6016-61c0.09375-0.80078-0.50391-1.6016-1.4062-1.6016zm-46.398 56.098c-1.3984 0-2.6016-1.1016-2.6016-2.6016l-0.30078-38.297c0-1.3984 1.1016-2.6016 2.6016-2.6016 1.5 0.10156 2.6016 1.1016 2.6016 2.6016l0.30078 38.301c-0.003906 1.3984-1.1016 2.5977-2.6016 2.5977zm16.301-2.5977c0 1.3984-1.1992 2.6016-2.6016 2.6016-1.3984 0-2.6016-1.1992-2.6016-2.6016v-38.301c0-1.3984 1.1992-2.6016 2.6016-2.6016 1.3984 0 2.6016 1.1992 2.6016 2.6016zm13.699 0c0 1.3984-1.1992 2.6016-2.6016 2.6016-1.3984 0-2.6016-1.1992-2.6016-2.6016l0.30078-38.301c0-1.3984 1.1016-2.5 2.6016-2.6016 1.3984 0 2.6016 1.1992 2.6016 2.6016z"/>
 </g>
</svg>
