<?xml version="1.0" encoding="UTF-8"?>
<svg width="120pt" height="120pt" version="1.1" viewBox="0 0 120 120" xmlns="http://www.w3.org/2000/svg">
 <path d="m115 31.531v7.2188c-0.19141 1.3789-0.37109 2.7617-0.55859 4.1406-0.96094 6.3125-3.2266 12.359-6.6523 17.75-5 8.2188-11.68 15-18.941 21.281h0.003906c-9.4219 7.918-19.473 15.047-30.062 21.316-0.23047-0.48828-0.46094-0.92969-0.66016-1.3906v0.003906c-4.6641-10.348-11.191-19.75-19.25-27.742-4.2109-4.2109-8.5391-8.3086-12.73-12.539-3.3945-3.2852-6.1836-7.1484-8.2266-11.41-2.4336-5.4648-3.3789-11.473-2.7422-17.422 0.26953-4.2773 1.6484-8.4141 4-12 3.4297-5.0898 8.3516-7.9219 14.262-9.0898 7.082-1.5273 14.477-0.46484 20.84 3 3.7109 1.9414 6.8555 4.8125 9.1289 8.332 0.30859-0.57031 0.60156-1.1016 0.87891-1.6289 1.9961-3.9375 4.6328-7.5117 7.8125-10.57 4.6641-4.5 11.105-6.6523 17.539-5.8594 6.4727 0.53906 12.531 3.4102 17.051 8.0781 4.2773 4.4336 7.0508 10.102 7.9297 16.199 0.11719 0.80078 0.26953 1.5703 0.37891 2.332z"/>
</svg>
