<?xml version="1.0" encoding="UTF-8"?>
<svg width="100pt" height="100pt" version="1.1" viewBox="0 0 100 100" xmlns="http://www.w3.org/2000/svg">
 <path d="m50 2.5c-26.199 0-47.5 21.301-47.5 47.5s21.301 47.5 47.5 47.5 47.5-21.301 47.5-47.5-21.301-47.5-47.5-47.5zm5.1992 55.199v13c0 1.3984-1.1016 2.5-2.5 2.5h-5.5c-1.3984 0-2.5-1.1016-2.5-2.5v-13c0-1.3984-1.1016-2.5-2.5-2.5h-13c-1.3984 0-2.5-1.1016-2.5-2.5v-5.5c0-1.3984 1.1016-2.5 2.5-2.5h13c1.3984 0 2.5-1.1016 2.5-2.5v-13c0-1.3984 1.1016-2.5 2.5-2.5h5.5c1.3984 0 2.5 1.1016 2.5 2.5v13c0 1.3984 1.1016 2.5 2.5 2.5h13c1.3984 0 2.5 1.1016 2.5 2.5v5.5c0 1.3984-1.1016 2.5-2.5 2.5h-13c-1.3984 0-2.5 1.1016-2.5 2.5z"/>
</svg>
